<svg xmlns="http://www.w3.org/2000/svg" xmlns:xlink="http://www.w3.org/1999/xlink" width="1440" height="1024" viewBox="0 0 1440 1024" fill="none">
<rect x="0" y="0" width="0" height="0" fill="rgba(249, 249, 249, 1)" />
<path     fill="#FFFFFF" fill-opacity="0" d="M0 1024L1440 1024L1440 0L0 0L0 1024Z">
</path>
<path d="M1039.25 163.1C1038.23 163.134 1037.16 163.178 1036.03 163.23C1032.46 163.395 1028.57 163.636 1024.37 163.96C1014.57 164.716 1004.2 165.803 993.24 167.23C980.255 168.921 967.343 170.982 954.5 173.4C939.607 176.204 925.279 179.408 911.51 183.02C895.893 187.117 881.261 191.667 867.62 196.67C852.43 202.241 838.622 208.32 826.2 214.9C812.575 222.117 800.709 229.891 790.61 238.22C779.672 247.24 770.859 256.858 764.17 267.09L764.17 267.11L764.16 267.12C762.734 269.221 762.255 272.059 762.73 275.63C763.221 279.315 764.713 283.744 767.21 288.92C769.624 293.926 772.991 299.642 777.3 306.07C781.361 312.128 786.311 318.893 792.15 326.35C797.539 333.232 803.783 340.837 810.89 349.17C817.245 356.621 824.501 364.908 832.66 374.02C839.485 381.642 847.464 390.423 856.6 400.37C862.125 406.386 870.547 415.508 881.86 427.73C893.733 440.557 902.635 450.197 908.56 456.65C918.445 467.417 927.191 477.042 934.8 485.54C943.951 495.761 952.234 505.203 959.64 513.86C967.971 523.599 975.465 532.659 982.12 541.04C989.391 550.196 995.777 558.699 1001.29 566.54C1007.22 574.971 1012.19 582.729 1016.22 589.82C1020.51 597.384 1023.76 604.245 1025.96 610.41C1028.31 616.999 1029.49 622.851 1029.49 627.96C1029.49 633.273 1028.15 638.84 1025.49 644.66C1022.95 650.216 1019.22 655.947 1014.3 661.85C1009.54 667.564 1003.72 673.365 996.85 679.26C990.125 685.033 982.495 690.802 973.96 696.57C965.518 702.276 956.337 707.891 946.41 713.4C936.497 718.901 926.021 724.201 914.98 729.31C903.853 734.459 892.344 739.318 880.46 743.89C868.386 748.534 856.116 752.812 843.65 756.71C830.895 760.698 818.126 764.235 805.34 767.32C792.179 770.496 779.181 773.145 766.33 775.28C753.043 777.488 740.058 779.113 727.39 780.16C714.254 781.246 701.565 781.703 689.33 781.52C676.617 781.331 664.489 780.458 652.94 778.9C640.924 777.279 629.618 774.923 619.01 771.84C607.964 768.629 597.729 764.644 588.32 759.88C578.524 754.92 569.66 749.141 561.72 742.54C561.492 742.349 561.317 742.119 561.19 741.85C561.065 741.581 561 741.297 561 741C561 739.179 561.654 737.187 562.96 735.02C564.129 733.08 565.826 730.977 568.06 728.72C572.311 724.425 578.364 719.657 586.21 714.42C593.884 709.297 602.855 704.001 613.13 698.53C623.523 692.996 634.647 687.609 646.5 682.36C658.811 676.908 671.283 671.889 683.92 667.3C697.286 662.447 710.311 658.271 722.99 654.77C736.541 651.028 749.317 648.168 761.31 646.19C774.195 644.065 785.923 643 796.5 643C797.605 643 798.5 643.895 798.5 645C798.5 646.105 797.605 647 796.5 647C786.141 647 774.63 648.05 761.96 650.14C750.107 652.095 737.475 654.915 724.06 658.62C711.483 662.093 698.557 666.243 685.29 671.06C672.74 675.617 660.348 680.605 648.12 686.02C636.355 691.23 625.318 696.572 615.01 702.06C604.852 707.469 595.994 712.701 588.43 717.75C580.808 722.838 574.971 727.437 570.91 731.54C568.9 733.57 567.395 735.413 566.39 737.08C565.702 738.222 565.265 739.239 565.09 740.13C572.59 746.261 580.936 751.655 590.13 756.31C599.317 760.962 609.313 764.859 620.12 768C630.538 771.028 641.661 773.335 653.48 774.93C664.871 776.467 676.837 777.333 689.39 777.52C701.494 777.701 714.053 777.255 727.06 776.18C739.619 775.141 752.491 773.53 765.67 771.34C778.427 769.221 791.343 766.583 804.41 763.43C817.11 760.365 829.79 756.851 842.46 752.89C854.845 749.018 867.036 744.774 879.03 740.16C890.831 735.621 902.253 730.793 913.3 725.68C924.253 720.611 934.643 715.353 944.47 709.9C954.294 704.448 963.375 698.901 971.72 693.26C980.127 687.577 987.641 681.903 994.25 676.23C1000.95 670.48 1006.6 664.833 1011.22 659.29C1015.91 653.661 1019.46 648.223 1021.86 642.99C1024.28 637.698 1025.49 632.691 1025.49 627.96C1025.49 618.819 1021.25 606.769 1012.75 591.8C1008.79 584.82 1003.87 577.165 998.02 568.84C992.551 561.063 986.203 552.626 978.98 543.53C972.355 535.187 964.899 526.162 956.6 516.46C949.213 507.826 940.951 498.407 931.82 488.21C924.223 479.725 915.485 470.106 905.61 459.35C899.687 452.899 890.798 443.262 878.93 430.44C867.613 418.213 859.188 409.099 853.66 403.08C844.513 393.121 836.517 384.316 829.68 376.68C821.499 367.545 814.227 359.246 807.85 351.77C800.707 343.394 794.423 335.736 789 328.81C783.101 321.275 778.086 314.44 773.97 308.3C769.555 301.715 766.106 295.835 763.61 290.66C760.929 285.1 759.317 280.267 758.77 276.16C758.161 271.588 758.851 267.831 760.84 264.89C767.75 254.323 776.824 244.404 788.07 235.13C798.379 226.629 810.466 218.703 824.33 211.36C836.913 204.696 850.88 198.553 866.24 192.92C880 187.874 894.751 183.279 910.49 179.15C924.35 175.514 938.775 172.291 953.76 169.47C966.677 167.038 979.67 164.971 992.73 163.27C1003.76 161.834 1014.2 160.731 1024.07 159.97C1028.31 159.643 1032.24 159.397 1035.85 159.23C1039.2 159.076 1042.08 159 1044.5 159C1045.37 159.039 1045.99 159.456 1046.35 160.25C1046.64 161.073 1046.49 161.805 1045.89 162.44C1042.08 166.128 1037.89 169.587 1033.32 172.83C1029.12 175.813 1024.52 178.664 1019.52 181.38C1015.06 183.804 1010.12 186.205 1004.73 188.57C1000.23 190.546 995.074 192.635 989.26 194.85C989.027 194.945 988.767 195 988.5 195C987.395 195 986.5 194.105 986.5 193C986.5 192.13 987.054 191.385 987.83 191.11C993.582 188.918 998.686 186.849 1003.13 184.9C1008.42 182.58 1013.24 180.241 1017.61 177.87C1022.47 175.231 1026.94 172.461 1031.01 169.57C1033.92 167.504 1036.66 165.35 1039.25 163.1Z" stroke="url(#linear_border_1_5)" stroke-width="16" stroke-linejoin="round"   fill-rule="evenodd"  fill="#000000" >
</path>
<defs>
<linearGradient id="linear_border_1_5" x1="1046.4966735839844" y1="470.27923583984375" x2="561" y2="470.27923583984375" gradientUnits="userSpaceOnUse">
<stop offset="0.1044" stop-color="#735C5C" stop-opacity="0.92" />
<stop offset="0.6823" stop-color="#735C5C" stop-opacity="0" />
<stop offset="1" stop-color="#735C5C"  />
</linearGradient>
</defs>
</svg>
