<?xml version="1.0" encoding="utf-8"?><!DOCTYPE svg PUBLIC "-//W3C//DTD SVG 1.1//EN" "http://www.w3.org/Graphics/SVG/1.1/DTD/svg11.dtd"><svg version="1.1" xmlns="http://www.w3.org/2000/svg" width="160" height="160" viewBox="0 0 160 160"><g transform="scale(0.303,0.303)"><g transform="translate(0,0)"><g transform="translate(0,0)"><g transform="translate(0,0) scale(1,1) scale(1.3968253968253967,1.3968253968253967)">

<path fill="#000000" d=" M 260.52 37.73 C 261.15 39.09 261.77 40.46 262.39 41.83 C 261.49 41.87 259.68 41.93 258.78 41.97 C 259.35 40.55 259.93 39.14 260.52 37.73 Z"/>
<path fill="#000000" d=" M 290.68 59.04 C 299.01 59.32 307.44 56.23 315.66 58.37 C 320.56 60.70 324.66 65.00 327.01 69.89 C 330.02 76.22 324.16 82.37 318.64 84.42 C 313.06 84.89 307.62 82.69 302.04 82.78 C 297.60 83.06 293.49 85.34 289.05 85.45 C 282.40 84.50 275.93 80.14 269.12 82.15 C 260.34 84.23 251.23 83.63 242.28 83.59 C 237.92 83.38 234.26 86.15 230.37 87.66 C 231.00 93.67 234.64 98.78 240.63 100.45 C 254.13 104.28 268.21 101.65 281.94 101.01 C 292.19 102.32 302.64 100.58 312.80 102.68 C 316.11 103.32 319.79 102.33 322.79 104.22 C 325.94 106.03 329.00 107.99 332.03 110.00 C 330.63 117.44 329.70 125.11 331.26 132.61 C 333.00 142.64 333.10 152.95 330.95 162.93 C 329.54 169.52 333.99 175.34 333.64 181.83 C 332.61 187.62 331.82 193.49 330.16 199.15 C 329.29 201.67 328.26 204.56 325.67 205.78 C 317.88 206.85 310.82 202.49 303.11 202.40 C 295.24 202.19 287.31 202.06 279.49 203.17 C 278.56 213.42 275.89 224.03 279.96 234.02 C 282.08 240.60 289.59 241.46 295.27 243.42 C 299.07 244.73 301.11 240.28 302.69 237.65 C 304.66 232.70 310.26 231.48 314.74 229.80 C 319.76 227.78 324.50 232.03 326.82 236.16 C 331.63 244.58 329.47 254.58 332.10 263.60 C 334.07 269.93 331.62 276.45 332.02 282.89 C 331.91 289.63 333.43 296.80 330.06 303.02 C 327.84 307.06 326.44 312.45 322.12 314.81 C 313.00 317.42 303.88 321.38 294.17 320.40 C 285.66 319.29 277.45 322.90 268.96 322.72 C 258.21 323.53 247.59 318.52 236.90 321.42 C 227.45 323.76 216.39 323.69 208.35 317.57 C 206.91 314.75 208.04 311.49 208.06 308.49 C 210.12 302.69 205.18 298.36 204.54 292.99 C 203.30 273.90 200.24 254.96 199.43 235.83 C 199.35 231.67 200.82 226.70 205.05 225.06 C 210.63 222.73 216.58 221.01 222.64 220.63 C 224.73 220.52 226.47 221.83 227.23 223.74 C 229.21 229.07 229.98 234.75 231.17 240.30 C 235.39 240.54 239.62 240.91 243.86 240.74 C 246.74 239.60 248.39 236.58 250.54 234.49 C 253.64 231.11 252.34 226.02 252.55 221.95 C 251.57 215.62 254.28 209.72 255.19 203.60 C 255.38 198.38 252.73 193.38 253.19 188.14 C 256.04 179.11 266.14 174.40 274.93 173.70 C 283.80 175.52 292.85 179.85 302.06 177.23 C 304.67 176.28 308.41 175.53 309.02 172.32 C 309.80 166.00 311.08 159.72 311.23 153.34 C 310.54 145.65 308.71 138.12 307.87 130.45 C 307.63 126.94 302.26 127.30 300.16 126.75 C 291.22 126.43 281.95 126.51 273.22 128.33 C 262.63 135.08 263.83 148.47 259.91 158.87 C 256.78 170.99 245.37 178.08 235.51 184.43 C 224.58 190.15 212.01 183.93 200.55 186.23 C 195.95 186.51 189.34 189.76 185.89 185.20 C 183.35 178.67 181.75 170.63 185.11 164.10 C 191.00 158.09 200.29 158.19 208.02 156.19 C 215.70 154.17 224.08 154.87 231.29 151.22 C 235.96 148.70 236.47 142.59 235.50 137.94 C 233.79 136.22 236.46 131.73 233.70 130.39 C 223.99 126.49 213.32 124.57 202.96 126.85 C 200.27 123.31 197.09 120.12 194.79 116.31 C 191.45 107.40 198.32 99.99 199.33 91.53 C 201.25 86.21 197.11 81.98 196.40 77.05 C 198.14 69.18 205.35 62.81 213.55 62.47 C 231.53 59.60 249.87 57.14 268.07 59.55 C 275.63 60.78 283.12 58.49 290.68 59.04 M 231.90 275.52 C 231.75 282.83 231.48 290.14 231.11 297.45 C 238.34 297.36 245.45 295.15 252.70 296.07 C 261.18 296.10 269.47 293.61 277.97 293.52 C 286.85 292.24 295.78 293.67 304.70 293.66 C 304.22 285.53 303.95 277.39 303.59 269.27 C 288.09 268.17 272.55 268.42 257.02 268.46 C 248.41 269.37 238.66 269.16 231.90 275.52 Z"/>
<path fill="#000000" d=" M 127.24 59.90 C 140.83 60.72 154.49 62.60 167.52 66.69 C 170.44 67.93 170.94 71.67 171.50 74.44 C 173.46 79.00 169.85 83.81 165.69 85.16 C 159.59 85.39 153.42 83.44 147.42 85.43 C 139.98 86.52 132.80 90.38 125.14 89.06 C 110.65 87.17 96.06 88.91 81.54 88.08 C 71.89 87.45 62.21 89.89 52.62 88.38 C 48.39 87.05 49.46 81.29 49.37 78.08 C 49.01 70.31 57.00 65.43 63.87 64.56 C 77.80 64.42 91.51 61.34 105.45 61.44 C 112.75 61.66 119.99 60.54 127.24 59.90 Z"/>
<path fill="#000000" d=" M 102.26 107.95 C 112.59 107.84 122.69 110.76 133.04 110.61 C 140.75 111.27 148.21 108.23 155.90 108.82 C 160.45 109.10 165.00 109.36 169.55 109.63 C 172.49 115.81 177.14 122.66 173.68 129.68 C 168.56 136.77 158.81 135.91 151.59 139.55 C 152.51 146.54 150.18 154.50 154.08 160.84 C 159.42 165.62 168.28 167.10 169.95 175.18 C 172.16 185.19 162.18 192.43 153.20 193.02 C 143.51 193.38 133.86 195.62 124.18 193.65 C 108.62 191.34 92.70 190.20 77.05 192.15 C 70.12 193.37 59.71 197.25 56.41 188.64 C 55.09 181.67 54.37 173.53 58.15 167.11 C 62.88 161.91 71.25 162.26 75.81 156.82 C 79.04 152.47 78.68 146.76 79.46 141.62 C 73.72 139.43 67.31 138.83 61.47 141.02 C 56.05 141.66 49.78 142.83 44.77 140.22 C 40.48 133.62 44.83 124.57 45.42 117.45 C 62.95 107.88 83.46 112.18 102.26 107.95 M 107.26 137.43 C 98.74 141.92 99.58 153.16 101.57 161.13 C 108.60 160.20 115.99 160.61 122.81 158.69 C 127.33 154.90 131.70 150.76 135.71 146.43 C 132.74 142.39 128.88 139.01 126.71 134.41 C 120.57 137.21 113.70 136.27 107.26 137.43 Z"/>
<path fill="#000000" d=" M 131.93 207.19 C 139.75 207.92 147.49 209.73 155.42 209.70 C 162.66 208.59 168.51 214.45 169.89 221.08 C 172.97 235.76 178.96 249.73 179.73 264.89 C 182.58 276.12 178.05 287.69 180.45 298.95 C 185.16 308.02 180.63 318.69 175.55 326.64 C 168.72 335.29 157.29 333.43 147.70 333.96 C 134.64 336.04 121.35 335.01 108.29 337.11 C 91.98 337.47 75.02 334.94 61.23 325.65 C 57.92 321.43 58.85 315.70 58.07 310.72 C 56.65 301.38 56.16 291.95 55.63 282.54 C 54.94 274.60 57.27 266.85 57.43 258.95 C 58.26 248.87 55.40 238.51 58.31 228.60 C 60.25 223.16 61.04 216.62 65.35 212.40 C 74.85 206.13 86.75 208.54 97.41 208.22 C 108.92 209.55 120.46 208.36 131.93 207.19 M 86.86 238.79 C 84.36 240.28 82.53 242.68 81.10 245.17 C 79.12 248.12 80.80 253.09 84.57 253.48 C 97.00 254.83 109.72 251.67 122.06 254.71 C 132.51 258.66 143.45 255.32 153.55 252.09 C 152.42 248.57 153.40 242.56 148.88 241.37 C 141.31 240.21 133.63 239.82 126.04 238.76 C 117.06 237.15 108.01 239.36 99.00 239.08 C 95.01 238.88 90.55 236.41 86.86 238.79 M 92.27 288.33 C 88.80 290.92 81.13 291.70 83.08 298.01 C 79.63 303.44 84.47 303.08 87.14 303.56 C 108.26 303.38 129.48 309.43 150.54 304.64 C 153.18 299.97 155.92 295.27 157.00 289.93 C 144.73 285.57 131.53 286.52 118.91 288.46 C 110.12 287.85 100.66 283.95 92.27 288.33 Z"/>
</g>
</g></g></g></svg>