<svg xmlns="http://www.w3.org/2000/svg" xmlns:xlink="http://www.w3.org/1999/xlink" width="1440" height="1024" viewBox="0 0 1440 1024" fill="none">
<rect x="0" y="0" width="0" height="0" fill="rgba(249, 249, 249, 1)" />
<path     fill="#FFFFFF" fill-opacity="0" d="M0 1024L1440 1024L1440 0L0 0L0 1024Z">
</path>
<path d="M1085.75 35.3684C1084.16 35.4215 1082.5 35.4894 1080.74 35.5703C1075.2 35.8263 1069.16 36.2009 1062.64 36.7042C1047.42 37.8777 1031.31 39.5664 1014.29 41.7834C994.123 44.4102 974.071 47.6117 954.125 51.3671C930.995 55.722 908.742 60.6987 887.359 66.3095C863.106 72.6733 840.381 79.741 819.196 87.5116C795.605 96.1641 774.161 105.608 754.869 115.828C733.708 127.037 715.28 139.113 699.596 152.05C682.608 166.06 668.921 180.999 658.533 196.893L658.533 196.924L658.517 196.939C656.303 200.203 655.558 204.611 656.297 210.158C657.06 215.882 659.377 222.761 663.254 230.801C667.003 238.576 672.232 247.455 678.924 257.439C685.232 266.849 692.919 277.356 701.987 288.939C710.356 299.629 720.053 311.441 731.091 324.385C740.961 335.959 752.229 348.83 764.901 362.984C775.501 374.823 787.893 388.461 802.081 403.912C810.661 413.257 823.741 427.426 841.311 446.41C859.751 466.334 873.575 481.306 882.778 491.33C898.13 508.054 911.712 523.004 923.53 536.204C937.741 552.08 950.605 566.747 962.107 580.193C975.046 595.32 986.685 609.393 997.02 622.41C1008.31 636.632 1018.23 649.839 1026.79 662.019C1036 675.115 1043.73 687.164 1049.98 698.179C1056.65 709.928 1061.69 720.584 1065.11 730.161C1068.76 740.395 1070.59 749.485 1070.59 757.42C1070.59 765.672 1068.51 774.32 1064.38 783.36C1060.42 791.99 1054.64 800.891 1047 810.061C1039.6 818.936 1030.56 827.947 1019.9 837.103C1009.45 846.071 997.602 855.031 984.347 863.99C971.236 872.853 956.977 881.575 941.56 890.132C926.166 898.677 909.895 906.908 892.748 914.844C875.468 922.842 857.593 930.389 839.137 937.491C820.385 944.704 801.33 951.349 781.969 957.404C762.161 963.598 742.329 969.093 722.472 973.884C702.033 978.817 681.846 982.932 661.887 986.248C641.252 989.677 621.086 992.201 601.412 993.828C581.011 995.515 561.305 996.224 542.303 995.94C522.559 995.646 503.723 994.291 485.787 991.871C467.126 989.352 449.568 985.694 433.092 980.905C415.938 975.918 400.042 969.727 385.429 962.328C370.216 954.623 356.449 945.646 344.118 935.394C343.764 935.097 343.492 934.74 343.295 934.322C343.1 933.904 343 933.463 343 933.002C343 930.173 344.016 927.08 346.044 923.713C347.86 920.7 350.495 917.433 353.965 913.928C360.566 907.257 369.967 899.851 382.152 891.716C394.07 883.759 408.003 875.532 423.96 867.035C440.102 858.439 457.378 850.071 475.786 841.918C494.905 833.45 514.275 825.653 533.901 818.526C554.659 810.987 574.888 804.501 594.578 799.064C615.624 793.251 635.466 788.809 654.091 785.737C674.103 782.435 692.316 780.782 708.743 780.782C710.459 780.782 711.849 782.172 711.849 783.888C711.849 785.604 710.459 786.995 708.743 786.995C692.655 786.995 674.778 788.626 655.101 791.872C636.693 794.908 617.075 799.289 596.24 805.044C576.707 810.438 556.633 816.884 536.028 824.366C516.538 831.445 497.292 839.193 478.302 847.603C460.031 855.696 442.889 863.993 426.88 872.518C411.104 880.919 397.347 889.046 385.6 896.888C373.763 904.791 364.697 911.935 358.391 918.308C355.269 921.461 352.931 924.323 351.371 926.913C350.302 928.687 349.624 930.267 349.352 931.651C361 941.174 373.962 949.552 388.24 956.782C402.508 964.008 418.032 970.061 434.816 974.94C450.995 979.643 468.27 983.227 486.626 985.704C504.317 988.091 522.9 989.436 542.396 989.727C561.194 990.008 580.698 989.316 600.899 987.646C620.404 986.032 640.394 983.53 660.862 980.128C680.674 976.836 700.733 972.739 721.028 967.842C740.751 963.081 760.444 957.623 780.121 951.47C799.355 945.456 818.289 938.864 836.916 931.697C855.243 924.646 872.982 917.147 890.139 909.206C907.149 901.333 923.286 893.166 938.548 884.695C953.805 876.227 967.907 867.61 980.868 858.849C993.925 850.022 1005.59 841.208 1015.86 832.397C1026.26 823.465 1035.04 814.694 1042.21 806.084C1049.5 797.341 1055.02 788.894 1058.74 780.766C1062.5 772.546 1064.38 764.768 1064.38 757.42C1064.38 743.223 1057.79 724.506 1044.59 701.254C1038.44 690.412 1030.81 678.523 1021.71 665.591C1013.22 653.511 1003.36 640.407 992.143 626.278C981.855 613.32 970.275 599.301 957.386 584.231C945.914 570.82 933.082 556.19 918.902 540.351C907.102 527.172 893.533 512.231 878.196 495.524C868.998 485.504 855.192 470.535 836.761 450.619C819.184 431.628 806.1 417.47 797.515 408.122C783.31 392.653 770.892 378.976 760.273 367.115C747.568 352.926 736.273 340.036 726.37 328.423C715.276 315.413 705.517 303.518 697.095 292.76C687.933 281.057 680.145 270.44 673.753 260.903C666.897 250.675 661.54 241.542 657.663 233.503C653.499 224.867 650.996 217.361 650.146 210.981C649.2 203.879 650.272 198.043 653.361 193.476C664.093 177.062 678.185 161.655 695.651 147.25C711.661 134.045 730.433 121.735 751.964 110.329C771.506 99.9774 793.198 90.4362 817.053 81.6868C838.423 73.8485 861.331 66.7121 885.775 60.2983C907.3 54.6504 929.702 49.6446 952.975 45.2627C973.037 41.4857 993.215 38.2744 1013.5 35.6325C1030.62 33.4015 1046.85 31.6886 1062.17 30.5067C1068.76 29.9985 1074.86 29.6162 1080.47 29.3573C1085.66 29.1173 1090.14 29 1093.9 29C1095.25 29.0604 1096.21 29.7078 1096.77 30.9416C1097.22 32.2207 1096.99 33.3573 1096.06 34.3432C1090.14 40.0715 1083.63 45.444 1076.54 50.4817C1070.01 55.1158 1062.87 59.5441 1055.1 63.7621C1048.17 67.5278 1040.51 71.2573 1032.13 74.9301C1025.14 77.9988 1017.14 81.2435 1008.11 84.6846C1007.75 84.8324 1007.34 84.9176 1006.93 84.9176C1005.21 84.9176 1003.82 83.5268 1003.82 81.8111C1003.82 80.4595 1004.68 79.3026 1005.89 78.8754C1014.82 75.4709 1022.75 72.2572 1029.65 69.2296C1037.86 65.6268 1045.36 61.9925 1052.14 58.3102C1059.69 54.2109 1066.62 49.9084 1072.95 45.418C1077.47 42.2087 1081.73 38.8633 1085.75 35.3684Z" stroke="url(#linear_border_1_5)" stroke-width="50" stroke-linejoin="round"   fill-rule="evenodd"  fill="#FFFFFF" >
</path>
<defs>
<linearGradient id="linear_border_1_5" x1="63.6806640625" y1="573.6143798828125" x2="1097" y2="512.5" gradientUnits="userSpaceOnUse">
<stop offset="0" stop-color="#787878" stop-opacity="0.47" />
<stop offset="0.33333333333333337" stop-color="#FFFFFF"  />
<stop offset="0.8891746265001226" stop-color="#FFFFFF"  />
<stop offset="1" stop-color="#CCCCCC" stop-opacity="0.78" />
</linearGradient>
</defs>
</svg>
